# Ridge Run - modelling reference
# RHINO COORDINATES: Z is up, X is the direction the player runs,
# +Y is AWAY from the camera (game -Z).
# Units are game units; 1 unit ~ 1 metre. Model with the origin at the
# BOTTOM CENTRE of the footprint.

# crate: model INSIDE the NOMINAL box. Origin = bottom centre.

g crate_NOMINAL_model_to_this
o crate_NOMINAL_model_to_this
v -0.5750 -0.3900 0.0000
v 0.5750 -0.3900 0.0000
v 0.5750 0.3900 0.0000
v -0.5750 0.3900 0.0000
v -0.5750 -0.3900 0.9300
v 0.5750 -0.3900 0.9300
v 0.5750 0.3900 0.9300
v -0.5750 0.3900 0.9300
f 2 3 4 5
f 6 9 8 7
f 2 6 7 3
f 3 7 8 4
f 4 8 9 5
f 5 9 6 2

g crate_smallest_spawn
o crate_smallest_spawn
v -0.4750 -0.3900 0.0000
v 0.4750 -0.3900 0.0000
v 0.4750 0.3900 0.0000
v -0.4750 0.3900 0.0000
v -0.4750 -0.3900 0.8000
v 0.4750 -0.3900 0.8000
v 0.4750 0.3900 0.8000
v -0.4750 0.3900 0.8000
f 10 11 12 13
f 14 17 16 15
f 10 14 15 11
f 11 15 16 12
f 12 16 17 13
f 13 17 14 10

g crate_largest_spawn
o crate_largest_spawn
v -0.6750 -0.3900 0.0000
v 0.6750 -0.3900 0.0000
v 0.6750 0.3900 0.0000
v -0.6750 0.3900 0.0000
v -0.6750 -0.3900 1.0500
v 0.6750 -0.3900 1.0500
v 0.6750 0.3900 1.0500
v -0.6750 0.3900 1.0500
f 18 19 20 21
f 22 25 24 23
f 18 22 23 19
f 19 23 24 20
f 20 24 25 21
f 21 25 22 18

g PLAYER_standing_1.62
o PLAYER_standing_1.62
v -1.9100 -0.2500 0.0000
v -1.2900 -0.2500 0.0000
v -1.2900 0.2500 0.0000
v -1.9100 0.2500 0.0000
v -1.9100 -0.2500 1.6200
v -1.2900 -0.2500 1.6200
v -1.2900 0.2500 1.6200
v -1.9100 0.2500 1.6200
f 26 27 28 29
f 30 33 32 31
f 26 30 31 27
f 27 31 32 28
f 28 32 33 29
f 29 33 30 26

g PLAYER_ducking_0.82
o PLAYER_ducking_0.82
v -3.1300 -0.2500 0.0000
v -2.2700 -0.2500 0.0000
v -2.2700 0.2500 0.0000
v -3.1300 0.2500 0.0000
v -3.1300 -0.2500 0.8200
v -2.2700 -0.2500 0.8200
v -2.2700 0.2500 0.8200
v -3.1300 0.2500 0.8200
f 34 35 36 37
f 38 41 40 39
f 34 38 39 35
f 35 39 40 36
f 36 40 41 37
f 37 41 38 34

g ARROW_direction_of_travel_+X
o ARROW_direction_of_travel_+X
v 1.6000 -0.0300 0.0000
v 3.2000 -0.0300 0.0000
v 3.2000 0.0300 0.0000
v 1.6000 0.0300 0.0000
v 1.6000 -0.0300 0.0600
v 3.2000 -0.0300 0.0600
v 3.2000 0.0300 0.0600
v 1.6000 0.0300 0.0600
f 42 43 44 45
f 46 49 48 47
f 42 46 47 43
f 43 47 48 44
f 44 48 49 45
f 45 49 46 42
